<svg width="50" height="50" viewBox="0 0 50 50" fill="none" xmlns="http://www.w3.org/2000/svg">
<rect x="50.0002" y="50" width="50" height="50" rx="10.945" transform="rotate(180 50.0002 50)" fill="#115F04"/>
<path d="M33.3093 16.3895C33.2383 15.7892 32.6942 15.3601 32.0939 15.4311L22.3114 16.5874C21.7111 16.6583 21.282 17.2025 21.353 17.8028C21.4239 18.4031 21.9681 18.8322 22.5684 18.7612L31.2639 17.7334L32.2917 26.4289C32.3626 27.0292 32.9068 27.4584 33.5071 27.3874C34.1074 27.3164 34.5365 26.7723 34.4656 26.172L33.3093 16.3895ZM20.6974 32.9001L33.0818 17.1958L31.3629 15.8403L18.9786 31.5447L20.6974 32.9001Z" fill="white"/>
</svg>
