<svg width="20" height="20" viewBox="0 0 25 25" fill="none" xmlns="http://www.w3.org/2000/svg">
<path fill-rule="evenodd" clip-rule="evenodd" d="M16.9202 2.32996C16.5937 2.30057 16.1677 2.29976 15.5231 2.29976H3.39716C2.68406 2.29976 2.10598 2.93653 2.10598 3.72203C2.10598 4.50753 2.68406 5.1443 3.39716 5.1443H12.3793H18.1616C18.1615 4.46872 18.1601 4.01632 18.1342 3.66714C18.1084 3.31969 18.0633 3.16799 18.0209 3.07633C17.8971 2.80871 17.6996 2.59113 17.4566 2.45477C17.3734 2.40807 17.2357 2.35835 16.9202 2.32996ZM3.39716 0.197267C1.62991 0.197267 0.197266 1.77536 0.197266 3.72203V17.5737L0.197266 17.6181C0.197255 18.6194 0.197247 19.4345 0.246326 20.0962C0.297039 20.7799 0.404871 21.3918 0.668409 21.9616C1.08284 22.8575 1.74412 23.5859 2.55748 24.0424C3.07471 24.3327 3.63022 24.4515 4.25091 24.5074C4.85161 24.5614 5.59162 24.5614 6.50063 24.5614H6.50072H6.54092H18.2177H18.2579H18.258C19.167 24.5614 19.9071 24.5614 20.5078 24.5074C21.1285 24.4515 21.684 24.3327 22.2012 24.0424C23.0145 23.5859 23.6758 22.8575 24.0903 21.9616C24.3538 21.3918 24.4616 20.7799 24.5123 20.0962C24.5614 19.4345 24.5614 18.6193 24.5614 17.618V17.5737V17.3264V12.3793V12.132V12.0877C24.5614 11.0864 24.5614 10.2712 24.5123 9.60948C24.4616 8.92577 24.3538 8.31386 24.0903 7.74413C23.6758 6.8482 23.0145 6.11978 22.2012 5.66327C21.684 5.37298 21.1285 5.2542 20.5078 5.19834C20.3695 5.18589 20.2238 5.17631 20.0703 5.16894V5.16442C20.0703 4.50734 20.0703 3.95152 20.0366 3.49593C20.0011 3.01846 19.9239 2.55927 19.7215 2.12182C19.4148 1.45859 18.9252 0.919374 18.3231 0.581443C17.926 0.35855 17.5091 0.273469 17.0757 0.234458C16.6621 0.197236 16.1575 0.19725 15.561 0.197266L15.5231 0.197267H3.39716ZM22.6517 11.3281C22.6491 10.6854 22.6404 10.1903 22.61 9.78069C22.5689 9.227 22.4932 8.92258 22.3896 8.69864C22.1581 8.19831 21.7889 7.79153 21.3346 7.5366C21.1313 7.4225 20.855 7.33908 20.3523 7.29385C19.8385 7.24761 19.1767 7.24679 18.2177 7.24679H12.3793H3.39716C2.93772 7.24679 2.5009 7.14013 2.10598 6.94806V17.5737C2.10598 18.63 2.10672 19.3591 2.1487 19.925C2.18977 20.4787 2.2655 20.7831 2.36908 21.0071C2.60052 21.5074 2.96981 21.9142 3.42402 22.1691C3.62732 22.2832 3.90368 22.3666 4.40634 22.4119C4.92013 22.4581 5.58196 22.4589 6.54092 22.4589H18.2177C19.1767 22.4589 19.8385 22.4581 20.3523 22.4119C20.855 22.3666 21.1313 22.2832 21.3346 22.1691C21.7889 21.9142 22.1581 21.5074 22.3896 21.0071C22.4932 20.7831 22.5689 20.4787 22.61 19.925C22.6404 19.5154 22.6491 19.0203 22.6517 18.3776H21.3615C19.5942 18.3776 18.1616 16.7995 18.1616 14.8528C18.1616 12.9062 19.5942 11.3281 21.3615 11.3281H22.6517ZM22.6527 16.2751V13.4306H21.3615C20.6484 13.4306 20.0703 14.0674 20.0703 14.8528C20.0703 15.6383 20.6484 16.2751 21.3615 16.2751H22.6527Z" fill="white"/>
</svg>
